<svg width="26" height="26" viewBox="0 0 26 26" fill="none" xmlns="http://www.w3.org/2000/svg">
<path d="M13.0001 24.8298C19.5805 24.8298 24.915 19.4953 24.915 12.9149C24.915 6.33448 19.5805 1 13.0001 1C6.41968 1 1.08521 6.33448 1.08521 12.9149C1.08521 19.4953 6.41968 24.8298 13.0001 24.8298Z" stroke="black" stroke-linecap="round" stroke-linejoin="round"/>
<path d="M15.7802 21.2553V19.0356C15.81 18.6668 15.7589 18.296 15.6301 17.948C15.5014 17.6 15.298 17.2825 15.0336 17.017C17.5277 16.7463 20.149 15.8258 20.149 11.6029C20.1488 10.5231 19.7222 9.48461 18.9575 8.70252C19.3196 7.75779 19.294 6.71353 18.886 5.78668C18.886 5.78668 17.9487 5.51599 15.7802 6.93137C13.9596 6.45093 12.0406 6.45093 10.2199 6.93137C8.05142 5.51599 7.11411 5.78668 7.11411 5.78668C6.70612 6.71353 6.68053 7.75779 7.04262 8.70252C6.27223 9.49042 5.8452 10.5382 5.85114 11.6261C5.85114 15.8181 8.47241 16.7385 10.9666 17.0401C10.7053 17.303 10.5037 17.6166 10.3751 17.9605C10.2464 18.3042 10.1936 18.6705 10.2199 19.0356V21.2553" stroke="black" stroke-linecap="round" stroke-linejoin="round"/>
<path d="M10.22 19.7085C7.83698 20.4612 5.85116 19.7085 4.65967 17.3882" stroke="black" stroke-linecap="round" stroke-linejoin="round"/>
</svg>
